<?xml version="1.0" standalone="no"?>
<!DOCTYPE svg PUBLIC "-//W3C//DTD SVG 20010904//EN"
 "http://www.w3.org/TR/2001/REC-SVG-20010904/DTD/svg10.dtd">
<svg version="1.0" xmlns="http://www.w3.org/2000/svg"
 width="512.000000pt" height="512.000000pt" viewBox="0 0 512.000000 512.000000"
 preserveAspectRatio="xMidYMid meet">
<metadata>
Created by potrace 1.14, written by Peter Selinger 2001-2017
</metadata>
<g transform="translate(0.000000,512.000000) scale(0.100000,-0.100000)"
fill="#000000" stroke="none">
<path d="M275 5111 c-99 -25 -195 -104 -242 -198 l-28 -58 -3 -2271 c-2 -2044
0 -2276 14 -2325 34 -117 116 -201 238 -242 45 -16 230 -17 2306 -17 2076 0
2261 1 2306 17 125 42 208 129 239 249 14 54 15 305 13 2325 l-3 2264 -28 57
c-35 71 -102 138 -175 175 l-57 28 -2275 2 c-1251 0 -2288 -2 -2305 -6z"/>
</g>
</svg>
